# Blender v2.63 (sub 0) OBJ File: ''
# www.blender.org
o Mball_Meta
v 1.011630 -1.131212 0.200000
v 1.011630 -1.131212 -0.200000
v 0.700360 -1.000000 -0.200000
v 0.700360 -1.000000 0.200000
v 0.611630 -0.960477 0.200000
v 0.611630 -0.960477 -0.200000
v 1.011630 -1.000000 -0.511270
v 1.011630 -0.960477 -0.600000
v 0.611630 -0.774694 -0.600000
v 1.011630 -0.600000 -0.960477
v 0.611630 -0.600000 -0.774694
v 0.436936 -0.600000 -0.600000
v 0.251152 -0.600000 -0.200000
v 0.611630 -0.774694 0.600000
v 1.011630 -0.960477 0.600000
v 1.011630 -1.000000 0.511270
v 0.611630 -0.600000 0.774694
v 1.011630 -0.600000 0.960477
v 0.611630 -0.200000 0.960478
v 0.700360 -0.200000 1.000000
v 1.011630 -0.511270 1.000000
v 0.611630 0.200000 0.960478
v 0.700360 0.200000 1.000000
v 0.611630 0.600000 0.774694
v 1.011630 0.600000 0.960477
v 1.011630 0.511270 1.000000
v 0.611630 0.779989 0.600000
v 1.011630 0.960477 0.600000
v 1.011630 0.200000 1.131212
v 0.251152 -0.200000 0.600000
v 0.251152 0.200000 0.600000
v 0.211630 -0.200000 0.511270
v 0.211630 0.200000 0.511270
v 0.211630 0.600000 0.201151
v 0.436933 0.600000 0.600000
v 0.080418 0.200000 0.200000
v 0.210979 0.600000 0.200000
v -0.188370 0.829994 0.200000
v -0.188370 1.000000 0.378654
v 0.211630 1.000000 0.460570
v -0.367424 1.000000 0.200000
v -0.579035 1.400000 0.200000
v -0.188370 1.400000 0.582948
v -0.457228 1.800000 0.200000
v -0.188370 1.800000 0.463896
v 0.211630 -0.511270 0.200000
v 0.436936 -0.600000 0.600000
v 0.251152 -0.600000 0.200000
v 0.211630 -0.511270 -0.200000
v 0.080418 -0.200000 -0.200000
v 0.080418 -0.200000 0.200000
v 0.080418 0.200000 -0.200000
v 0.211630 -0.200000 -0.511270
v 0.211630 0.200000 -0.511270
v 1.411630 -0.511270 1.000000
v 1.411630 -0.600000 0.960477
v 1.011630 -0.200000 1.131212
v 1.411630 -0.200000 1.131212
v 1.411630 0.200000 1.131212
v 1.722900 -0.200000 1.000000
v 1.811630 -0.200000 0.960477
v 1.811630 -0.600000 0.774694
v 1.722900 0.200000 1.000000
v 1.811630 0.200000 0.960477
v 2.172107 0.200000 0.600000
v 2.172107 -0.200000 0.600000
v 1.811630 0.600000 0.774694
v 1.986323 0.600000 0.600000
v 1.811630 0.774694 0.600000
v 2.211630 0.511269 0.200000
v 2.211630 0.200000 0.511269
v 2.172107 0.600000 0.200000
v 2.172107 0.600000 -0.200000
v 2.211630 0.511269 -0.200000
v 1.986323 0.600000 -0.600000
v 2.172107 0.200000 -0.600000
v 2.211630 0.200000 -0.511269
v 1.811630 0.960477 -0.200000
v 1.811630 0.774694 -0.600000
v 1.811630 0.600000 -0.774694
v 2.211630 -0.200000 -0.511269
v 2.172107 -0.200000 -0.600000
v 2.211630 -0.511269 -0.200000
v 1.986323 -0.600000 -0.600000
v 2.172107 -0.600000 -0.200000
v 1.811630 -0.960477 -0.200000
v 1.811630 -0.774694 -0.600000
v 1.811630 -0.600000 -0.774694
v 1.811630 -0.960477 0.200000
v 2.172107 -0.600000 0.200000
v 1.811630 -0.774694 0.600000
v 1.986323 -0.600000 0.600000
v 1.411630 -0.960477 0.600000
v 1.722900 -1.000000 0.200000
v 1.411630 -1.000000 0.511270
v 1.722900 -1.000000 -0.200000
v 2.342842 -0.200000 -0.200000
v 2.342842 0.200000 -0.200000
v 1.811630 0.200000 -0.960477
v 2.342842 0.200000 0.200000
v 1.411630 -1.131212 0.200000
v 1.411630 -1.131212 -0.200000
v 1.011630 -0.200000 -1.131212
v 1.011630 0.200000 -1.131212
v 0.700360 0.200000 -1.000000
v 0.700360 -0.200000 -1.000000
v 1.011630 0.511270 -1.000000
v 0.611630 0.200000 -0.960478
v 1.011630 0.600000 -0.960477
v 0.611630 0.600000 -0.774694
v 0.436933 0.600000 -0.600000
v 0.251152 0.200000 -0.600000
v 1.411630 0.200000 -1.131212
v 1.411630 0.511270 -1.000000
v 1.722900 0.200000 -1.000000
v 1.411630 -0.200000 -1.131212
v 0.611630 0.779989 -0.600000
v 1.011630 0.960477 -0.600000
v 1.011630 1.000000 -0.511270
v 0.611630 1.000000 -0.360433
v 1.011630 1.131366 -0.200000
v 0.661629 1.400000 -0.200000
v 0.611630 1.400000 -0.242472
v 0.611630 1.459118 -0.200000
v 0.611630 1.459118 0.200000
v 0.661629 1.400000 0.200000
v 0.611630 1.400000 0.242472
v 1.411630 1.000000 -0.511270
v 1.411630 1.131212 -0.200000
v 1.011630 1.131366 0.200000
v 1.411630 1.131212 0.200000
v 1.411630 1.000000 0.511270
v 1.011630 1.000000 0.511270
v 1.411630 0.960477 0.600000
v 1.722900 1.000000 -0.200000
v 1.411630 0.600000 0.960477
v 1.411630 0.511270 1.000000
v 2.342842 -0.200000 0.200000
v 2.211630 -0.511269 0.200000
v 2.211630 -0.200000 0.511269
v 1.811630 0.960477 0.200000
v 1.722900 1.000000 0.200000
v 1.411630 -0.960477 -0.600000
v 1.411630 -0.600000 -0.960477
v 1.411630 -1.000000 -0.511270
v 1.011630 -0.511270 -1.000000
v 1.411630 -0.511270 -1.000000
v 1.811630 -0.200000 -0.960477
v 1.722900 -0.200000 -1.000000
v 1.411630 0.960477 -0.600000
v 1.411630 0.600000 -0.960477
v -0.188370 2.021199 0.200000
v -0.457228 1.800000 -0.200000
v -0.188370 2.021199 -0.200000
v -0.188370 1.800000 -0.463896
v 0.211630 1.800000 -0.453323
v 0.211630 2.012664 -0.200000
v 0.460979 1.800000 -0.200000
v 0.211630 2.012664 0.200000
v 0.460979 1.800000 0.200000
v 0.211630 1.800000 0.453323
v -0.188370 0.829994 -0.200000
v -0.367424 1.000000 -0.200000
v -0.188370 1.000000 -0.378654
v -0.188370 1.400000 -0.582948
v -0.579035 1.400000 -0.200000
v 0.611630 1.000000 0.360433
v 0.211630 1.400000 0.578934
v 0.611630 -0.200000 -0.960478
v 0.251152 -0.200000 -0.600000
v 0.211630 0.600000 -0.201151
v 0.210979 0.600000 -0.200000
v 0.211630 1.000000 -0.460570
v 0.211630 1.400000 -0.578934
vn -0.190405 -0.963042 0.190405
vn -0.394055 -0.898404 0.193701
vn -0.392407 -0.900021 -0.189642
vn -0.190405 -0.963042 -0.190405
vn -0.548845 -0.816645 -0.178411
vn -0.546983 -0.817347 0.180914
vn -0.178411 -0.816645 -0.548845
vn -0.189642 -0.900021 -0.392407
vn -0.496475 -0.712027 -0.496475
vn -0.495895 -0.495834 -0.712851
vn -0.179724 -0.549364 -0.816004
vn -0.712577 -0.496078 -0.496078
vn -0.815668 -0.549913 -0.179479
vn -0.193518 -0.897885 0.395367
vn -0.179724 -0.816004 0.549364
vn -0.495895 -0.712851 0.495834
vn -0.180914 -0.546983 0.817347
vn -0.495834 -0.495895 0.712851
vn -0.193701 -0.394055 0.898404
vn -0.395367 -0.193518 0.897885
vn -0.549364 -0.179724 0.816004
vn -0.392407 0.189642 0.900021
vn -0.548784 0.178350 0.816706
vn -0.192969 0.395886 0.897763
vn -0.178564 0.549242 0.816340
vn -0.496017 0.493240 0.714591
vn -0.146702 0.782006 0.605701
vn -0.430250 0.562120 0.706290
vn -0.190405 0.190405 0.963042
vn -0.807062 0.171880 0.564867
vn -0.816004 -0.179724 0.549364
vn -0.892483 0.172430 0.416761
vn -0.897885 -0.193518 0.395367
vn -0.701865 0.479598 0.526627
vn -0.766564 -0.073763 0.637898
vn -0.895077 -0.385937 0.223273
vn -0.969481 0.151585 0.192541
vn -0.039033 -0.268838 0.962371
vn -0.408734 -0.483474 0.774041
vn -0.527543 -0.763573 0.372326
vn -0.762658 -0.556719 0.329234
vn -0.367290 -0.052919 0.928587
vn -0.930662 -0.083926 0.356059
vn -0.318247 0.500931 0.804834
vn -0.796991 0.503220 0.333964
vn -0.712851 -0.495895 0.495834
vn -0.898404 -0.394055 0.193701
vn -0.817347 -0.546983 0.180914
vn -0.897763 -0.395886 -0.192969
vn -0.963042 -0.190405 0.190405
vn -0.963042 -0.190405 -0.190405
vn -0.969481 0.151585 -0.192541
vn -0.892483 0.172430 -0.416761
vn -0.900021 -0.189642 -0.392407
vn 0.180914 -0.546983 0.817347
vn 0.193701 -0.394055 0.898404
vn 0.190405 -0.190405 0.963042
vn -0.190405 -0.190405 0.963042
vn 0.190405 0.190405 0.963042
vn 0.495834 -0.495895 0.712851
vn 0.549364 -0.179724 0.816004
vn 0.395367 -0.193518 0.897885
vn 0.548784 0.178350 0.816706
vn 0.392407 0.189642 0.900021
vn 0.816706 -0.178350 0.548784
vn 0.816004 0.179724 0.549364
vn 0.712851 0.495895 0.495834
vn 0.496078 0.496078 0.712577
vn 0.496475 0.712027 0.496475
vn 0.897885 0.193518 0.395367
vn 0.898404 0.394055 0.193701
vn 0.817316 0.546983 0.180914
vn 0.897763 0.395886 -0.192969
vn 0.815668 0.549913 -0.179479
vn 0.816706 0.178350 -0.548784
vn 0.712577 0.496078 -0.496078
vn 0.900021 0.189642 -0.392407
vn 0.496078 0.712577 -0.496078
vn 0.549913 0.815668 -0.179479
vn 0.495834 0.495895 -0.712851
vn 0.816004 -0.179724 -0.549364
vn 0.897885 -0.193518 -0.395367
vn 0.712851 -0.495895 -0.495834
vn 0.898404 -0.394055 -0.193701
vn 0.817316 -0.546983 -0.180914
vn 0.496475 -0.712027 -0.496475
vn 0.548845 -0.816645 -0.178411
vn 0.496078 -0.496078 -0.712577
vn 0.815668 -0.549913 0.179479
vn 0.549913 -0.815668 0.179479
vn 0.712577 -0.496078 0.496078
vn 0.496078 -0.712577 0.496078
vn 0.395886 -0.897763 0.192969
vn 0.178350 -0.816706 0.548784
vn 0.189642 -0.900021 0.392407
vn 0.392407 -0.900021 -0.189642
vn 0.963042 -0.190405 -0.190405
vn 0.963042 0.190405 -0.190405
vn 0.549364 0.179724 -0.816004
vn 0.963042 0.190405 0.190405
vn 0.190405 -0.963042 0.190405
vn 0.190405 -0.963042 -0.190405
vn -0.394055 -0.193701 -0.898404
vn -0.392407 0.189642 -0.900021
vn -0.190405 0.190405 -0.963042
vn -0.190405 -0.190405 -0.963042
vn -0.189642 0.392407 -0.900021
vn -0.177496 0.548173 -0.817286
vn -0.548845 0.178411 -0.816645
vn -0.496414 0.493606 -0.714042
vn -0.807062 0.171880 -0.564867
vn -0.706931 0.452162 -0.543809
vn 0.193701 0.394055 -0.898404
vn 0.190405 0.190405 -0.963042
vn 0.395367 0.193518 -0.897885
vn 0.190405 -0.190405 -0.963042
vn -0.146702 0.782006 -0.605701
vn -0.488174 0.651784 -0.580370
vn -0.013123 0.428510 -0.903409
vn -0.070345 0.838130 -0.540880
vn 0.630085 0.651112 -0.423078
vn 0.188147 0.923917 -0.333110
vn 0.595264 0.253273 -0.762535
vn 0.786401 0.478164 -0.391034
vn 0.616413 0.622608 0.482040
vn 0.780908 0.493454 0.382946
vn 0.489761 0.340037 0.802789
vn 0.190558 0.963012 -0.190466
vn 0.189673 0.899991 -0.392438
vn 0.190558 0.963012 0.190466
vn 0.183996 0.928404 0.322733
vn -0.115543 0.879482 0.461654
vn 0.189673 0.899991 0.392438
vn 0.178411 0.816645 0.548845
vn 0.395886 0.897763 -0.192969
vn 0.179479 0.549913 0.815668
vn 0.192969 0.395886 0.897763
vn 0.963042 -0.190405 0.190405
vn 0.897763 -0.395886 0.192969
vn 0.900021 -0.189642 0.392407
vn 0.548845 0.816645 0.178411
vn 0.392407 0.900021 0.189642
vn 0.179479 -0.549913 -0.815668
vn 0.178411 -0.816645 -0.548845
vn 0.189642 -0.900021 -0.392407
vn 0.192969 -0.395886 -0.897763
vn -0.193518 -0.395367 -0.897885
vn 0.548784 -0.178350 -0.816706
vn 0.392407 -0.189642 -0.900021
vn 0.180914 0.546983 -0.817347
vn 0.178350 0.816706 -0.548784
vn -0.296762 0.902921 -0.310831
vn -0.796991 0.503220 -0.333964
vn -0.296762 0.902921 0.310831
vn -0.318247 0.500931 -0.804834
vn 0.323222 0.894162 -0.309793
vn 0.342051 0.501358 -0.794702
vn 0.769250 0.543260 -0.336253
vn 0.772729 0.537522 0.337504
vn 0.323222 0.894162 0.309793
vn 0.328410 0.510269 0.794824
vn -0.762658 -0.556719 -0.329234
vn -0.518601 -0.772179 -0.367046
vn -0.381603 -0.527543 -0.758965
vn -0.930662 -0.083926 -0.356059
vn -0.367290 -0.052919 -0.928587
vn 0.035920 0.384991 0.922208
vn 0.271615 0.047121 0.961241
vn -0.546983 -0.180914 -0.817347
vn -0.816706 -0.178350 -0.548784
vn -0.697256 0.008026 -0.716758
vn -0.855831 -0.276467 -0.437117
vn 0.099551 -0.390790 -0.915067
vn 0.272683 0.045778 -0.960997
s 1
f 1//1 4//2 3//3
f 1//1 3//3 2//4
f 6//5 3//3 4//2
f 6//5 4//2 5//6
f 8//7 7//8 3//3
f 8//7 3//3 6//5
f 9//9 8//7 6//5
f 11//10 10//11 8//7
f 11//10 8//7 9//9
f 12//12 11//10 9//9
f 13//13 12//12 9//9
f 13//13 9//9 6//5
f 4//2 16//14 15//15
f 4//2 15//15 14//16
f 5//6 4//2 14//16
f 15//15 18//17 17//18
f 15//15 17//18 14//16
f 21//19 20//20 19//21
f 21//19 19//21 17//18
f 18//17 21//19 17//18
f 20//20 23//22 22//23
f 20//20 22//23 19//21
f 26//24 25//25 24//26
f 26//24 24//26 22//23
f 23//22 26//24 22//23
f 24//26 25//25 28//27
f 24//26 28//27 27//28
f 23//22 29//29 26//24
f 22//23 31//30 30//31
f 22//23 30//31 19//21
f 30//31 31//30 33//32
f 30//31 33//32 32//33
f 31//30 35//34 34//35
f 31//30 34//35 33//32
f 34//35 37//36 36//37
f 34//35 36//37 33//32
f 34//35 40//38 39//39
f 34//35 39//39 38//40
f 37//36 34//35 38//40
f 39//39 41//41 38//40
f 43//42 42//43 41//41
f 43//42 41//41 39//39
f 45//44 44//45 42//43
f 45//44 42//43 43//42
f 47//46 30//31 32//33
f 47//46 32//33 46//47
f 48//48 47//46 46//47
f 49//49 13//13 48//48
f 49//49 48//48 46//47
f 51//50 50//51 49//49
f 51//50 49//49 46//47
f 36//37 52//52 50//51
f 36//37 50//51 51//50
f 50//51 52//52 54//53
f 50//51 54//53 53//54
f 50//51 53//54 49//49
f 32//33 51//50 46//47
f 33//32 36//37 51//50
f 33//32 51//50 32//33
f 18//17 56//55 55//56
f 18//17 55//56 21//19
f 55//56 58//57 57//58
f 55//56 57//58 21//19
f 58//57 59//59 29//29
f 58//57 29//29 57//58
f 62//60 61//61 60//62
f 62//60 60//62 55//56
f 56//55 62//60 55//56
f 64//63 63//64 60//62
f 64//63 60//62 61//61
f 66//65 65//66 64//63
f 66//65 64//63 61//61
f 65//66 68//67 67//68
f 65//66 67//68 64//63
f 67//68 68//67 69//69
f 68//67 65//66 71//70
f 68//67 71//70 70//71
f 72//72 68//67 70//71
f 74//73 73//74 72//72
f 74//73 72//72 70//71
f 76//75 75//76 73//74
f 76//75 73//74 74//73
f 77//77 76//75 74//73
f 73//74 75//76 79//78
f 73//74 79//78 78//79
f 75//76 80//80 79//78
f 82//81 76//75 77//77
f 82//81 77//77 81//82
f 84//83 82//81 81//82
f 84//83 81//82 83//84
f 85//85 84//83 83//84
f 87//86 84//83 85//85
f 87//86 85//85 86//87
f 88//88 84//83 87//86
f 86//87 85//85 90//89
f 86//87 90//89 89//90
f 89//90 90//89 92//91
f 89//90 92//91 91//92
f 92//91 62//60 91//92
f 94//93 89//90 91//92
f 94//93 91//92 93//94
f 95//95 94//93 93//94
f 94//93 96//96 86//87
f 94//93 86//87 89//90
f 81//82 97//97 83//84
f 77//77 98//98 97//97
f 77//77 97//97 81//82
f 80//80 75//76 76//75
f 80//80 76//75 99//99
f 98//98 77//77 74//73
f 100//100 98//98 74//73
f 100//100 74//73 70//71
f 71//70 100//100 70//71
f 92//91 66//65 61//61
f 92//91 61//61 62//60
f 19//21 30//31 47//46
f 19//21 47//46 17//18
f 17//18 47//46 14//16
f 16//14 95//95 93//94
f 16//14 93//94 15//15
f 1//1 101//101 95//95
f 1//1 95//95 16//14
f 47//46 48//48 5//6
f 47//46 5//6 14//16
f 48//48 13//13 6//5
f 48//48 6//5 5//6
f 3//3 7//8 2//4
f 1//1 2//4 102//102
f 1//1 102//102 101//101
f 4//2 1//1 16//14
f 106//103 105//104 104//105
f 106//103 104//105 103//106
f 104//105 105//104 107//107
f 109//108 107//107 105//104
f 109//108 105//104 108//109
f 110//110 109//108 108//109
f 112//111 111//112 110//110
f 112//111 110//110 108//109
f 114//113 113//114 104//105
f 114//113 104//105 107//107
f 115//115 113//114 114//113
f 104//105 113//114 116//116
f 104//105 116//116 103//106
f 118//117 109//108 110//110
f 118//117 110//110 117//118
f 120//119 119//120 118//117
f 120//119 118//117 117//118
f 122//121 121//122 119//120
f 122//121 119//120 120//119
f 123//123 122//121 120//119
f 122//121 123//123 124//124
f 126//125 122//121 124//124
f 126//125 124//124 125//126
f 127//127 126//125 125//126
f 129//128 128//129 119//120
f 129//128 119//120 121//122
f 131//130 129//128 121//122
f 131//130 121//122 130//131
f 133//132 132//133 131//130
f 133//132 131//130 130//131
f 134//134 132//133 133//132
f 134//134 133//132 28//27
f 135//135 128//129 129//128
f 110//110 111//112 117//118
f 91//92 62//60 56//55
f 91//92 56//55 93//94
f 93//94 56//55 18//17
f 93//94 18//17 15//15
f 60//62 63//64 59//59
f 60//62 59//59 58//57
f 60//62 58//57 55//56
f 136//136 67//68 69//69
f 136//136 69//69 134//134
f 64//63 67//68 136//136
f 64//63 136//136 137//137
f 63//64 64//63 137//137
f 59//59 63//64 137//137
f 25//25 136//136 134//134
f 25//25 134//134 28//27
f 137//137 136//136 25//25
f 137//137 25//25 26//24
f 29//29 59//59 137//137
f 29//29 137//137 26//24
f 102//102 96//96 94//93
f 102//102 94//93 101//101
f 94//93 95//95 101//101
f 97//97 98//98 100//100
f 97//97 100//100 138//138
f 83//84 97//97 138//138
f 83//84 138//138 139//139
f 138//138 100//100 71//70
f 138//138 71//70 140//140
f 138//138 140//140 139//139
f 90//89 85//85 83//84
f 90//89 83//84 139//139
f 71//70 65//66 66//65
f 71//70 66//65 140//140
f 66//65 92//91 90//89
f 66//65 90//89 139//139
f 140//140 66//65 139//139
f 72//72 73//74 78//79
f 72//72 78//79 141//141
f 68//67 72//72 141//141
f 68//67 141//141 69//69
f 142//142 135//135 129//128
f 142//142 129//128 131//130
f 78//79 135//135 142//142
f 78//79 142//142 141//141
f 132//133 142//142 131//130
f 141//141 142//142 132//133
f 141//141 132//133 134//134
f 69//69 141//141 134//134
f 144//143 88//88 87//86
f 144//143 87//86 143//144
f 86//87 96//96 145//145
f 86//87 145//145 143//144
f 87//86 86//87 143//144
f 145//145 96//96 102//102
f 10//11 144//143 143//144
f 10//11 143//144 8//7
f 147//146 144//143 10//11
f 147//146 10//11 146//147
f 143//144 145//145 7//8
f 143//144 7//8 8//7
f 7//8 145//145 102//102
f 7//8 102//102 2//4
f 99//99 76//75 82//81
f 99//99 82//81 148//148
f 148//148 82//81 84//83
f 148//148 84//83 88//88
f 113//114 115//115 149//149
f 113//114 149//149 116//116
f 116//116 149//149 147//146
f 149//149 115//115 99//99
f 149//149 99//99 148//148
f 148//148 88//88 144//143
f 148//148 144//143 147//146
f 149//149 148//148 147//146
f 79//78 80//80 151//150
f 79//78 151//150 150//151
f 80//80 99//99 115//115
f 80//80 115//115 114//113
f 151//150 80//80 114//113
f 135//135 78//79 79//78
f 135//135 79//78 150//151
f 128//129 135//135 150//151
f 150//151 151//150 109//108
f 150//151 109//108 118//117
f 109//108 151//150 114//113
f 109//108 114//113 107//107
f 119//120 128//129 150//151
f 119//120 150//151 118//117
f 154//152 153//153 44//45
f 154//152 44//45 152//154
f 155//155 153//153 154//152
f 157//156 156//157 155//155
f 157//156 155//155 154//152
f 158//158 156//157 157//156
f 160//159 158//158 157//156
f 160//159 157//156 159//160
f 161//161 160//159 159//160
f 45//44 161//161 159//160
f 45//44 159//160 152//154
f 159//160 157//156 154//152
f 159//160 154//152 152//154
f 44//45 45//44 152//154
f 41//41 163//162 162//163
f 41//41 162//163 38//40
f 163//162 164//164 162//163
f 166//165 153//153 155//155
f 166//165 155//155 165//166
f 163//162 166//165 165//166
f 163//162 165//166 164//164
f 44//45 153//153 166//165
f 44//45 166//165 42//43
f 42//43 166//165 163//162
f 42//43 163//162 41//41
f 29//29 23//22 20//20
f 29//29 20//20 57//58
f 57//58 20//20 21//19
f 24//26 35//34 31//30
f 24//26 31//30 22//23
f 35//34 24//26 27//28
f 121//122 122//121 126//125
f 121//122 126//125 130//131
f 130//131 126//125 127//127
f 130//131 127//127 167//167
f 133//132 130//131 167//167
f 28//27 133//132 167//167
f 28//27 167//167 27//28
f 27//28 167//167 40//38
f 27//28 40//38 34//35
f 35//34 27//28 34//35
f 125//126 160//159 161//161
f 125//126 161//161 168//168
f 127//127 125//126 168//168
f 167//167 127//127 168//168
f 167//167 168//168 40//38
f 168//168 161//161 45//44
f 168//168 45//44 43//42
f 40//38 168//168 43//42
f 40//38 43//42 39//39
f 103//106 116//116 147//146
f 103//106 147//146 146//147
f 106//103 103//106 146//147
f 108//109 105//104 106//103
f 108//109 106//103 169//169
f 106//103 146//147 10//11
f 106//103 10//11 11//10
f 169//169 106//103 11//10
f 170//170 112//111 108//109
f 170//170 108//109 169//169
f 12//12 170//170 169//169
f 12//12 169//169 11//10
f 54//53 112//111 170//170
f 54//53 170//170 53//54
f 170//170 12//12 13//13
f 170//170 13//13 49//49
f 53//54 170//170 49//49
f 171//171 111//112 112//111
f 171//171 112//111 54//53
f 52//52 172//172 171//171
f 52//52 171//171 54//53
f 37//36 172//172 52//52
f 37//36 52//52 36//37
f 120//119 117//118 111//112
f 120//119 111//112 171//171
f 173//173 120//119 171//171
f 173//173 171//171 172//172
f 173//173 172//172 162//163
f 164//164 173//173 162//163
f 162//163 172//172 37//36
f 162//163 37//36 38//40
f 158//158 124//124 123//123
f 158//158 123//123 174//174
f 156//157 158//158 174//174
f 174//174 123//123 120//119
f 174//174 120//119 173//173
f 124//124 158//158 160//159
f 124//124 160//159 125//126
f 155//155 156//157 174//174
f 155//155 174//174 165//166
f 165//166 174//174 173//173
f 165//166 173//173 164//164
